<?xml version="1.0" encoding="utf-8"?>
<!-- Generator: Adobe Illustrator 16.0.3, SVG Export Plug-In . SVG Version: 6.00 Build 0)  -->
<!DOCTYPE svg PUBLIC "-//W3C//DTD SVG 1.1//EN" "http://www.w3.org/Graphics/SVG/1.1/DTD/svg11.dtd">
<svg version="1.1" id="Layer_1" xmlns:v="https://vecta.io/nano"
	 xmlns="http://www.w3.org/2000/svg" xmlns:xlink="http://www.w3.org/1999/xlink" x="0px" y="0px" width="562px" height="235px"
	 viewBox="0 0 562 235" enable-background="new 0 0 562 235" xml:space="preserve">
<g>
	<path fill="#035DD3" d="M168.47,81.696h-23.59v62.587h15.915v-14.838v-0.289c2.237,0.028,4.39,0.031,6.157,0.031
		c0,0,1.895,0.09,4.707-0.234c14.71-1.507,23.935-10.229,23.935-23.807C195.594,90.738,185.234,81.696,168.47,81.696
		 M165.832,116.423c-1.76,0-3.434-0.022-5.037-0.063v-0.039V94.915h8.002c7.542,0,12.538,3.976,12.538,10.193
		c0,0.333-0.015,0.657-0.039,0.978C181.023,108.834,179.073,116.423,165.832,116.423"/>
	<path fill="#035DD3" d="M246.242,110.885c0.473-4.297-0.739-8.201-3.504-11.286c-3.752-4.187-10.114-6.494-17.915-6.494
		c-16.034,0-26.394,10.397-26.394,26.488c0,7.513,2.555,14.141,7.195,18.665c4.57,4.456,10.837,6.711,18.64,6.711
		c0.349,0,0.701-0.005,1.056-0.014c6.879-0.188,13.578-2.289,19.905-6.244l0.723-0.452l-4.409-9.836l-0.896,0.408
		c-6.859,3.129-16.259,4.876-21.799,1.725c-2.195-1.248-3.578-3.193-4.122-5.795C223.934,125.23,244.542,125.683,246.242,110.885
		 M232.568,110.215c0,0.742-0.251,1.328-0.792,1.846c-2.688,2.576-11.265,2.352-17.445,2.096c0.374-3.801,2.376-9.152,10.681-9.152
		C229.884,105.004,232.568,106.854,232.568,110.215"/>
	<path fill="#035DD3" d="M286.675,132.391l-1.003,0.136c-2.6,0.351-7.44,1.005-10.585-0.61c-2.728-1.436-3.043-5.67-3.043-8.73
		v-13.648h12.636V96.164h-12.636V81.257l-14.486,0.157l-0.021,15.361l-7.17,1.689v11.073h6.574v12.941
		c0,15.344,6.135,22.491,19.309,22.491c3.752,0,7.315-0.766,10.302-2.214l0.545-0.264L286.675,132.391z"/>
	<polygon fill="#F71229" points="327.322,114.767 304.624,81.697 292.758,81.697 292.758,144.621 308.674,144.621 308.58,112.318 
		322.896,134.45 322.896,134.544 331.747,134.544 331.747,134.45 345.969,112.508 345.969,144.621 361.885,144.621 361.885,81.697 
		350.019,81.697 	"/>
	<path fill="#F71229" d="M498.959,113.226l-2.957-0.767c-1.782-0.441-2.986-0.896-3.611-1.363c-0.629-0.469-0.93-1.055-0.906-1.762
		c0.031-1.023,0.632-1.759,1.8-2.203c1.169-0.443,2.81-0.633,4.924-0.566c1.024,0.033,2.159,0.164,3.402,0.397
		c1.243,0.231,2.468,0.509,3.677,0.837c1.207,0.326,2.318,0.684,3.333,1.066c1.013,0.387,1.771,0.746,2.274,1.082
		c0.854-0.677,1.571-1.537,2.148-2.577c0.578-1.04,0.891-2.295,0.938-3.77c0.049-1.538-0.358-2.88-1.219-4.03
		c-0.862-1.149-2.051-2.1-3.565-2.854c-1.516-0.753-3.31-1.339-5.38-1.757c-2.071-0.417-4.291-0.664-6.662-0.739
		c-3.139-0.1-6.017,0.162-8.633,0.785c-2.617,0.624-4.875,1.546-6.771,2.769c-1.9,1.223-3.393,2.777-4.478,4.667
		c-1.086,1.89-1.665,4.021-1.74,6.39c-0.138,4.357,1.116,7.747,3.767,10.172c2.647,2.424,6.742,4.269,12.282,5.533l2.864,0.668
		c1.782,0.379,3.051,0.836,3.803,1.371c0.754,0.537,1.115,1.254,1.088,2.15c-0.03,0.961-0.584,1.713-1.658,2.256
		c-1.076,0.543-2.607,0.784-4.593,0.721c-3.139-0.1-5.897-0.586-8.273-1.463c-2.377-0.877-4.479-1.857-6.304-2.941
		c-0.92,0.678-1.717,1.533-2.391,2.569s-1.035,2.323-1.083,3.862c-0.053,1.666,0.365,3.122,1.256,4.367
		c0.89,1.248,2.141,2.298,3.749,3.148c1.607,0.852,3.559,1.508,5.854,1.966c2.293,0.456,4.786,0.727,7.477,0.813
		c7.111,0.224,12.536-0.984,16.274-3.623c3.738-2.637,5.685-6.392,5.839-11.261c0.123-3.907-1.073-7.136-3.59-9.686
		C509.375,116.906,505.064,114.83,498.959,113.226"/>
	<path fill="#F71229" d="M414.627,110.885c0.473-4.297-0.739-8.201-3.505-11.286c-3.751-4.187-10.113-6.494-17.914-6.494
		c-16.033,0-26.394,10.397-26.394,26.488c0,7.513,2.555,14.141,7.194,18.665c4.571,4.456,10.837,6.711,18.641,6.711
		c0.349,0,0.7-0.005,1.056-0.014c6.879-0.188,13.576-2.289,19.904-6.244l0.724-0.452l-4.409-9.836l-0.896,0.408
		c-6.857,3.129-16.259,4.876-21.798,1.725c-2.196-1.248-3.578-3.193-4.122-5.795C392.318,125.23,412.926,125.683,414.627,110.885
		 M400.952,110.215c0,0.742-0.252,1.328-0.792,1.846c-2.688,2.576-11.264,2.352-17.445,2.096c0.375-3.801,2.377-9.152,10.682-9.152
		C398.269,105.004,400.952,106.854,400.952,110.215"/>
	<path fill="#F71229" d="M475.028,142.006c-2.095-0.833-5.503-4.265-5.503-13.158v-11.736V78.667h-14.646v20.208
		c-5.83-5.016-12.744-5.153-13.684-5.157c-9.329-0.036-15.162,6.319-16.707,8.002c-3.788,4.126-5.282,8.57-5.904,11.006
		c-0.546,2.128-1.151,5.571-0.637,9.742c0.221,1.786,0.919,6.942,4.549,11.809c0.496,0.667,8.125,10.543,20.18,9.479
		c6.813-0.602,11.469-4.38,13.506-6.359c0.597,0.965,1.681,2.601,2.84,3.725c3.457,3.55,11.688,3.957,14.787,2.544
		c0.799-0.364,1.044-0.584,1.32-0.824C475.404,142.602,475.389,142.148,475.028,142.006 M444.166,130.287
		c-6.425,0.344-11.947-5.1-11.953-11.518c-0.006-6.109,4.987-11.535,11.333-11.535c6.347,0,11.327,5.43,11.333,11.535
		C454.885,124.725,450.158,129.967,444.166,130.287"/>
	<polygon fill="#F71229" points="521.59,96.87 519.664,96.87 519.664,96.369 524.096,96.369 524.096,96.87 522.169,96.87 
		522.169,101.85 521.59,101.85 	"/>
	<polygon fill="#F71229" points="530.713,96.369 530.713,101.85 530.156,101.85 530.156,97.465 528.004,101.153 527.729,101.153 
		525.575,97.488 525.575,101.85 525.02,101.85 525.02,96.369 525.497,96.369 527.877,100.434 530.234,96.369 	"/>
	<path fill="#F71229" d="M66.133,134.221c6.938,7.239,15.791,10.678,22.515,9.408c5.504-0.701,11.623-3.684,16.833-8.677
		c9.713-9.306,12.588-22.065,6.426-28.496c-4.41-4.602-12.249-4.716-19.909-1.001c-3.59,1.739-7.775,1.652-11.299-0.217
		c-7.446-3.953-15.203-4.139-19.771,0.238C54.496,111.641,56.827,124.51,66.133,134.221"/>
	<path fill="#F71229" d="M108.662,90.329c1.509-5.569,5.951-9.272,9.923-8.272c3.972,1.001,5.968,6.328,4.459,11.897
		c-1.509,5.57-5.952,9.273-9.923,8.272S107.154,95.899,108.662,90.329"/>
	<path fill="#F71229" d="M89.799,79.649c1.084-6.713,5.253-11.713,9.313-11.168c4.061,0.546,6.473,6.43,5.389,13.143
		c-1.084,6.713-5.254,11.713-9.314,11.168C91.127,92.247,88.714,86.362,89.799,79.649"/>
	<path fill="#F71229" d="M63.782,90.329c-1.509-5.569-5.951-9.272-9.922-8.272c-3.972,1.001-5.968,6.328-4.459,11.897
		c1.509,5.57,5.952,9.273,9.923,8.272C63.294,101.226,65.291,95.899,63.782,90.329"/>
	<path fill="#F71229" d="M82.646,79.649c-1.084-6.713-5.254-11.713-9.314-11.168c-4.06,0.546-6.473,6.43-5.389,13.143
		c1.084,6.713,5.254,11.713,9.315,11.168C81.317,92.247,83.73,86.362,82.646,79.649"/>
	<polygon fill="#035DD3" points="150.284,163.914 153.555,157.441 157.47,157.441 151.965,167.461 151.965,174.117 148.464,174.117 
		148.464,167.461 142.96,157.441 146.876,157.441 150.146,163.914 	"/>
	<path fill="#035DD3" d="M163.136,162.21c3.478,0,5.988,2.28,5.988,6.195c0,3.8-2.603,5.941-5.988,5.941
		c-3.409,0-6.011-2.142-6.011-5.941C157.125,164.49,159.634,162.21,163.136,162.21 M163.089,164.766
		c-1.681,0-2.441,1.566-2.441,3.616c0,2.097,0.854,3.386,2.511,3.386c1.658,0,2.441-1.382,2.441-3.386
		C165.6,166.217,164.816,164.766,163.089,164.766"/>
	<path fill="#035DD3" d="M179.81,162.601h3.523v11.31h-2.28l-0.69-1.728c-1.083,1.128-2.557,2.095-4.33,2.095
		c-2.58,0-4.146-1.979-4.146-4.398v-7.278h3.409v6.656c0,1.267,0.921,2.304,2.188,2.304c0.921,0,1.727-0.53,2.326-1.105V162.601z"/>
	<path fill="#035DD3" d="M190.518,173.91h-3.5v-11.31h1.819l0.783,2.304h0.115c0.668-2.534,3.662-2.971,5.044-2.119v2.58
		c-2.373-0.047-4.214,0.506-4.262,3.178V173.91z"/>
	<polygon fill="#035DD3" points="210.577,173.91 207.054,173.91 207.054,160.391 202.147,160.391 202.147,157.441 215.506,157.441 
		215.506,160.391 210.577,160.391 	"/>
	<path fill="#035DD3" d="M220.158,173.91h-3.501v-11.31h1.819l0.783,2.304h0.115c0.668-2.534,3.662-2.971,5.044-2.119v2.58
		c-2.372-0.047-4.214,0.506-4.261,3.178V173.91z"/>
	<path fill="#035DD3" d="M234.529,162.601h3.523v11.31h-2.28l-0.69-1.728c-1.083,1.128-2.557,2.095-4.33,2.095
		c-2.58,0-4.146-1.979-4.146-4.398v-7.278h3.409v6.656c0,1.267,0.921,2.304,2.188,2.304c0.921,0,1.727-0.53,2.326-1.105V162.601z"/>
	<path fill="#035DD3" d="M240.978,172.85l1.244-2.211c1.151,0.737,2.924,1.152,3.799,1.152c0.738-0.023,1.566-0.254,1.544-1.061
		c-0.139-1.703-6.149-0.598-6.541-4.49c-0.253-2.511,1.958-3.938,4.444-4.054c1.613-0.046,3.386,0.253,4.999,1.313l-1.152,2.257
		c-0.944-0.575-2.648-0.921-3.569-0.874c-0.807,0.045-1.497,0.414-1.475,1.082c0.115,1.565,6.172,0.575,6.702,4.214
		c0.415,2.765-2.003,4.077-4.283,4.216C244.248,174.578,241.922,173.795,240.978,172.85"/>
	<path fill="#035DD3" d="M251.847,165.365v-2.212l2.165-0.391l1.521-3.686h1.843v3.523h3.892v2.765h-3.892v3.316
		c0,0.69,0.045,2.026,0.921,2.487c0.852,0.438,2.049,0.3,2.901,0.185l0.092,2.21c-0.76,0.369-1.658,0.553-2.579,0.553
		c-3.455,0-4.791-1.979-4.791-5.619v-3.132H251.847z"/>
	<path fill="#035DD3" d="M274.464,172.851c-1.474,0.921-3.087,1.45-4.768,1.497c-4.537,0.115-6.356-2.926-6.356-5.988
		c0-3.755,2.349-6.266,6.241-6.266c3.409,0,5.274,1.797,5.021,4.101c-0.391,3.408-5.228,3.316-7.784,3.178
		c0.322,2.948,4.123,2.673,6.748,1.475L274.464,172.851z M269.627,164.535c-2.142,0-2.833,1.405-2.879,2.718
		c2.166,0.093,4.975,0.185,4.975-1.197C271.723,165.25,271.17,164.535,269.627,164.535"/>
	<path fill="#035DD3" d="M288.927,157.373v16.537h-1.819l-0.737-1.359c-0.922,1.036-2.303,1.797-4.168,1.797
		c-3.409,0-5.62-2.58-5.62-5.942c0-3.433,2.143-6.195,5.896-6.195c1.128,0,2.142,0.368,2.947,0.897v-5.734H288.927z
		 M280.129,168.358c0,1.82,0.967,3.387,3.063,3.387c0.898,0,1.658-0.392,2.234-0.898v-5.344c-0.576-0.368-1.289-0.576-1.935-0.576
		C281.326,164.927,280.129,166.379,280.129,168.358"/>
	<path fill="#035DD3" d="M299.451,173.91v-16.469h6.725c4.445,0,6.448,2.511,6.496,5.274c0.045,2.972-1.936,6.035-6.818,6.035
		h-2.902v5.159H299.451z M305.854,165.986c2.464,0,3.707-1.612,3.662-3.155c-0.023-1.427-1.151-2.74-3.501-2.74h-3.063v5.896
		H305.854z"/>
	<path fill="#035DD3" d="M325.337,172.851c-1.474,0.921-3.086,1.45-4.768,1.497c-4.537,0.115-6.356-2.926-6.356-5.988
		c0-3.755,2.35-6.266,6.241-6.266c3.409,0,5.274,1.797,5.021,4.101c-0.392,3.408-5.229,3.316-7.784,3.178
		c0.322,2.948,4.121,2.673,6.748,1.475L325.337,172.851z M320.5,164.535c-2.142,0-2.832,1.405-2.878,2.718
		c2.164,0.093,4.974,0.185,4.974-1.197C322.596,165.25,322.043,164.535,320.5,164.535"/>
	<path fill="#035DD3" d="M327.109,165.365v-2.212l2.166-0.391l1.52-3.686h1.842v3.523h3.893v2.765h-3.893v3.316
		c0,0.69,0.046,2.026,0.922,2.487c0.852,0.438,2.05,0.3,2.902,0.185l0.091,2.21c-0.759,0.369-1.657,0.553-2.579,0.553
		c-3.455,0-4.791-1.979-4.791-5.619v-3.132H327.109z"/>
	<polygon fill="#035DD3" points="360.25,173.91 356.75,173.91 356.75,167.253 349.472,167.253 349.472,173.91 345.971,173.91 
		345.971,157.441 349.472,157.441 349.472,164.329 356.75,164.329 356.75,157.441 360.25,157.441 	"/>
	<path fill="#035DD3" d="M374.598,172.851c-1.474,0.921-3.086,1.45-4.768,1.497c-4.537,0.115-6.356-2.926-6.356-5.988
		c0-3.755,2.35-6.266,6.241-6.266c3.409,0,5.275,1.797,5.021,4.101c-0.392,3.408-5.229,3.316-7.784,3.178
		c0.322,2.948,4.122,2.673,6.748,1.475L374.598,172.851z M369.762,164.535c-2.142,0-2.833,1.405-2.879,2.718
		c2.165,0.093,4.975,0.185,4.975-1.197C371.857,165.25,371.305,164.535,369.762,164.535"/>
	<path fill="#035DD3" d="M387.08,162.601h1.82v7.485c0,0.853,0.23,1.521,1.404,1.498v2.372c-2.073,0.46-3.662-0.092-4.399-1.382
		h-0.068c-1.198,1.105-2.741,1.703-4.238,1.565c-3.108-0.184-4.768-2.786-4.768-5.711c0-3.317,2.073-5.919,5.343-6.104
		c1.498-0.114,2.995,0.438,4.031,1.336h0.068L387.08,162.601z M380.147,168.382c0,1.589,0.853,3.179,2.765,3.179
		c0.828,0,1.749-0.415,2.486-0.922v-5.043c-0.599-0.346-1.335-0.553-2.026-0.553C381.368,165.043,380.147,166.493,380.147,168.382"
		/>
	<path fill="#035DD3" d="M398.41,173.956c-2.878,0.575-5.688-0.3-5.688-3.755v-12.828h3.5v12.161c0,1.52,0.737,1.865,2.188,1.865
		V173.956z"/>
	<path fill="#035DD3" d="M399.562,165.365v-2.212l2.165-0.391l1.521-3.686h1.843v3.523h3.893v2.765h-3.893v3.316
		c0,0.69,0.046,2.026,0.921,2.487c0.853,0.438,2.05,0.3,2.902,0.185l0.092,2.21c-0.76,0.369-1.658,0.553-2.579,0.553
		c-3.455,0-4.791-1.979-4.791-5.619v-3.132H399.562z"/>
	<path fill="#035DD3" d="M415.729,173.91h-3.523v-16.537h3.523v5.919c0,0.507-0.046,0.921-0.069,1.243l0.115,0.047
		c1.036-1.198,2.211-2.35,4.055-2.35c2.486,0,4.145,1.98,4.145,4.399v7.278h-3.592v-6.61c0-1.267-0.899-2.304-2.189-2.304
		c-1.105,0-1.935,0.691-2.464,1.383V173.91z"/>
	<polygon fill="#035DD3" points="445.416,167.207 437.838,167.207 437.838,171.1 446.336,171.1 446.336,173.91 434.337,173.91 
		434.337,157.441 446.336,157.441 446.336,160.252 437.838,160.252 437.838,164.282 445.416,164.282 	"/>
	<polygon fill="#035DD3" points="452.277,162.601 454.812,166.194 457.391,162.601 461.26,162.601 456.838,168.267 461.26,173.91 
		457.391,173.91 454.812,170.34 452.277,173.91 448.409,173.91 452.808,168.267 448.409,162.601 	"/>
	<path fill="#035DD3" d="M464.023,179.645v-17.044h2.003l0.669,2.004l0.16,0.023c0.829-1.635,2.465-2.557,4.146-2.557
		c3.362,0,5.205,2.372,5.205,5.988c0,3.432-2.419,6.104-5.919,6.104c-1.083,0-2.004-0.253-2.741-0.668v6.149H464.023z
		 M472.959,168.082c0-2.004-1.082-3.178-2.786-3.178c-0.923,0-1.935,0.553-2.626,1.129v4.883c0.646,0.345,1.589,0.553,2.28,0.553
		C471.692,171.469,472.959,169.879,472.959,168.082"/>
	<path fill="#035DD3" d="M489.172,172.851c-1.474,0.921-3.086,1.45-4.768,1.497c-4.537,0.115-6.355-2.926-6.355-5.988
		c0-3.755,2.348-6.266,6.24-6.266c3.409,0,5.275,1.797,5.021,4.101c-0.392,3.408-5.229,3.316-7.784,3.178
		c0.322,2.948,4.122,2.673,6.747,1.475L489.172,172.851z M484.336,164.535c-2.142,0-2.834,1.405-2.879,2.718
		c2.164,0.093,4.975,0.185,4.975-1.197C486.432,165.25,485.879,164.535,484.336,164.535"/>
	<path fill="#035DD3" d="M495.598,173.91h-3.501v-11.31h1.819l0.783,2.304h0.115c0.668-2.534,3.662-2.971,5.044-2.119v2.58
		c-2.372-0.047-4.216,0.506-4.261,3.178V173.91z"/>
	<path fill="#035DD3" d="M500.548,165.365v-2.212l2.165-0.391l1.521-3.686h1.843v3.523h3.893v2.765h-3.893v3.316
		c0,0.69,0.046,2.026,0.921,2.487c0.853,0.438,2.05,0.3,2.902,0.185l0.092,2.21c-0.76,0.369-1.658,0.553-2.579,0.553
		c-3.455,0-4.791-1.979-4.791-5.619v-3.132H500.548z"/>
</g>
</svg>
